<?xml version="1.0" encoding="utf-8"?>
<!-- Generator: Adobe Illustrator 25.0.0, SVG Export Plug-In . SVG Version: 6.00 Build 0)  -->
<svg version="1.1" id="Layer_1" xmlns="http://www.w3.org/2000/svg" xmlns:xlink="http://www.w3.org/1999/xlink" x="0px" y="0px"
	 viewBox="0 0 512 200" style="enable-background:new 0 0 512 200;" xml:space="preserve">
<style type="text/css">
	.st0{fill:#4684FE;}
	.st1{fill:#FFFFFF;}
</style>
<g>
	<g>
		<path class="st0" d="M146.7,52.4H64.4h-0.8H41.5c-4,0-7.1,3.2-7.2,7.2v80.9c0,4,3.2,7.2,7.2,7.2h22.1h0.8h82.3
			c4,0,7.2-3.2,7.2-7.2V59.6C153.9,55.6,150.7,52.4,146.7,52.4z"/>
		<path class="st0" d="M150.1,42.6H64.4h-0.8H38.2c-7.5,0-13.7,6.1-13.7,13.6v87.6c0,7.5,6.1,13.6,13.6,13.6c0,0,0,0,0,0h25.4h0.8
			H150c7.5,0,13.7-6.1,13.7-13.6c0,0,0,0,0,0V56.2C163.7,48.7,157.6,42.6,150.1,42.6z M156.5,140.4c0,1.2-0.2,2.3-0.6,3.3
			c-0.2,0.4-0.4,0.9-0.6,1.3c-0.2,0.3-0.3,0.5-0.5,0.8c-0.2,0.3-0.4,0.5-0.6,0.8c-0.1,0.1-0.2,0.2-0.3,0.4c-0.1,0.1-0.2,0.2-0.3,0.3
			c-0.8,0.8-1.7,1.4-2.7,1.9c-0.3,0.1-0.6,0.3-0.9,0.4c-1,0.4-2.2,0.6-3.4,0.6H64.4h-0.8H41.5c-5.4,0-9.7-4.4-9.7-9.7V59.6
			c0-5.4,4.4-9.7,9.7-9.7h22.1h0.8h82.3c1.2,0,2.4,0.2,3.4,0.6c0.3,0.1,0.5,0.2,0.8,0.3c0,0,0,0,0,0c0.2,0.1,0.5,0.2,0.7,0.4
			c0.7,0.4,1.3,0.9,1.9,1.5c0.1,0.1,0.2,0.2,0.3,0.3c0.1,0.1,0.2,0.2,0.3,0.4c0.2,0.2,0.4,0.5,0.6,0.7c0.1,0.1,0.2,0.3,0.3,0.4
			c0.3,0.5,0.6,1.1,0.8,1.7c0,0,0,0,0,0c0.4,1,0.6,2.2,0.6,3.3v32.8l0,0V140.4z"/>
	</g>
	<path class="st1" d="M146.7,49.8H66.6v0h-2.2h-0.8H41.5c-5.4,0-9.7,4.4-9.7,9.7v32.7v0.2v48c0,5.4,4.4,9.7,9.7,9.7h22.1h0.8h82.3
		c1.2,0,2.3-0.2,3.4-0.6c0.3-0.1,0.6-0.2,0.9-0.4c1-0.5,1.9-1.1,2.7-1.9c0.1-0.1,0.2-0.2,0.3-0.3c0.1-0.1,0.2-0.2,0.3-0.4
		c0.2-0.2,0.4-0.5,0.6-0.8c0.2-0.3,0.3-0.5,0.5-0.8c0.2-0.4,0.4-0.8,0.6-1.3c0.4-1,0.6-2.2,0.6-3.3v-48h0V59.6c0,0,0,0,0,0
		C156.5,54.2,152.1,49.8,146.7,49.8z"/>
	<path class="st0" d="M153.9,140.4c0,4-3.2,7.2-7.2,7.2H64.4h-0.8H41.5c-4,0-7.1-3.2-7.2-7.2v-48v-0.2V59.6c0-4,3.2-7.2,7.2-7.2
		h22.1h0.8h75v0h7.3c4,0,7.2,3.2,7.2,7.2v32.7h0V140.4z"/>
</g>
<g>
	<path class="st0" d="M229.4,79.7h-9.3c-0.1,5.5-1,5.5-11.9,5.5c-11,0-11.4-0.4-11.4-10.1c0-5.8,0.4-8,1.8-9.2c1.1-1,3-1.2,9.6-1.2
		c7.4,0,10.1,0.4,10.8,1.5c0.5,0.7,0.6,1.3,0.7,3h9.3v-1.3c0-5.9-1-8.5-3.9-10c-2.2-1.2-5.3-1.5-13.9-1.5c-16.9,0-20.7,0.9-22.5,5.3
		c-0.8,2.1-1,5.1-1,13.5c0,4.7,0.1,7.5,0.2,9c0.4,4,1.4,6,3.7,7.3c2.7,1.5,6.9,1.9,19.6,1.9c7.5,0,11.3-0.4,14-1.3
		c3.3-1.3,4.5-3.9,4.5-9.5c0-0.3,0-0.6,0-1.1C229.5,81.2,229.4,80.6,229.4,79.7z"/>
	<polygon class="st0" points="269.3,70.2 245.2,70.2 245.2,57 235.5,57 235.5,93 245.2,93 245.2,79.6 269.3,79.6 269.3,93 279.1,93 
		279.1,57 269.3,57 	"/>
	<path class="st0" d="M301.6,57l-17.3,36h10.6l2.9-6.3h22.9l2.9,6.3H334l-17.1-36H301.6z M300.9,79.6l7-15h2.7l7,15H300.9z"/>
	<path class="st0" d="M379.2,68.5c0-6.3-0.7-8.6-3.1-10.2c-2-1.4-2-1.4-13.5-1.4h-24.2v36h9.2v-9.4h15c0.5,0,0.9,0,1.3,0
		c5.4,0,5.9,1.2,5.9,7.9V93h9.1V90c0.2-8.7-0.9-10.5-5.5-11.1c2.1-0.3,3-1,3.8-1.8C378.7,75.7,379.2,73.7,379.2,68.5z M368.5,74.7
		c-0.8,0.5-0.8,0.5-6,0.6h-14.9V65.3l15,0c4.8,0.1,4.9,0.1,5.8,0.5c1.4,0.7,1.6,2.1,1.6,4.4C370,72.5,369.7,73.9,368.5,74.7z"/>
	<path class="st0" d="M405.8,79.4h13.5v0.5c0,2.6-0.1,3.7-0.9,4.5c-1.3,1.1-2.2,1.2-11.9,1.2c-9.7-0.2-9.7-0.2-11-1.3
		c-1.3-1.1-1.6-3.1-1.6-9.5c0-9.9,0.4-10.1,12.6-10.1c7.9,0,10.2,0.2,11.3,1.1c0.8,0.6,0.9,1.2,1,3h9.2c-0.1-5-0.5-7.1-1.8-8.7
		c-2.1-2.7-6.7-3.6-19-3.6c-11.5,0-16.9,0.7-19.2,2.5c-2.7,2-3.5,5.7-3.5,15.5c0,4.9,0.1,8.4,0.3,9.9c0.4,3.4,1.3,5.4,3,6.7
		c2.7,2,6.2,2.5,17.6,2.5c9,0,12.6-0.2,16-1c3.8-0.8,5.8-3.2,6.2-7.3c0.1-1.7,0.4-7.9,0.4-11.7V73h-22.4V79.4z"/>
	<polygon class="st0" points="444,85.1 444,78.2 469.7,78.2 469.7,71.1 444,71.1 444,64.7 471.1,64.7 471.1,57 434.9,57 434.9,93 
		471.3,93 471.3,85.1 	"/>
</g>
<g>
	<path class="st0" d="M218.2,110.9c-1.7-1.4-1.7-1.4-11-1.6h-17.5v30.4h3.7v-11.4h13.8c4.3,0,4.3,0,5.1,0c3.4-0.1,4.6-0.5,6-1.9
		c1.5-1.4,2.1-3.5,2.1-7.6C220.5,114.5,219.8,112.2,218.2,110.9z M215.6,123.6c-1.1,1-1.7,1.1-8.4,1.1h-13.8v-11.8h13.8
		c6.9,0.1,7.3,0.2,8.4,1.1c0.8,0.7,1,1.7,1,4.8C216.7,121.7,216.4,122.8,215.6,123.6z"/>
	<path class="st0" d="M275.6,111.6c-1.8-2-4.8-2.5-14.2-2.5c-2.6,0-7.4,0.1-9.1,0.3c-3.5,0.2-4.9,0.6-6.2,1.8c-2,1.7-2.7,5-2.7,13.1
		c0,8.2,0.4,10.8,2.1,12.7c1.2,1.5,2.6,2,5.4,2.3c1.6,0.2,7.7,0.4,11.8,0.4c8.5,0,11.5-0.5,13.1-2.5c1.5-1.8,2.1-5.2,2.1-12.7
		c0-2.5-0.1-5.6-0.3-7.2C277.2,114.3,276.7,112.8,275.6,111.6z M273.6,132.4c-0.3,1.8-1.2,2.8-2.8,3.1c-1.9,0.4-5.7,0.6-9.7,0.6
		c-2,0-6.7-0.1-8.2-0.3c-2.9-0.2-3.9-0.5-4.6-1.4c-0.9-1-1.2-3.7-1.2-10.4c0-5.8,0.4-8.7,1.4-9.7c1.1-1.1,3.9-1.5,10.8-1.5
		c7,0,9.2,0.1,11.3,0.5c1.9,0.3,2.9,1.2,3.1,3c0.2,1.4,0.4,5,0.4,8.4C274.1,127.5,273.8,130.8,273.6,132.4z"/>
	<rect x="301.8" y="109.3" class="st0" width="3.7" height="30.4"/>
	<polygon class="st0" points="361.1,135.9 360.2,135.9 336.1,109.3 330,109.3 330,139.6 333.6,139.6 333.6,113.1 334.5,113.1 
		358.5,139.6 364.8,139.6 364.8,109.3 361.1,109.3 	"/>
	<polygon class="st0" points="387.6,112.8 401.5,112.8 401.5,139.6 405.2,139.6 405.2,112.8 419,112.8 419,109.3 387.6,109.3 	"/>
	<path class="st0" d="M470.3,125.5c-1.3-2-3.2-2.7-7.1-2.7c-7.2,0-7.2,0-9,0c-3.8,0-5.9-0.2-7.2-0.7c-1.7-0.6-2.2-1.5-2.2-4.2
		c0-1.5,0.3-2.6,0.9-3.3c1.3-1.4,4.5-1.9,11.6-1.9c5.1,0,7.6,0.5,8.9,1.6c0.7,0.5,0.9,1.3,0.9,3.5v0.5h3.7c0-3.9-0.5-5.4-2.1-6.8
		c-1.9-1.7-5-2.3-11.2-2.3c-2.8,0-6.6,0.2-8.7,0.5c-3,0.4-4.3,0.9-5.7,2.1c-1.4,1.2-2.1,3.2-2.1,6c0,6.2,2.7,8.5,10,8.5
		c13.6,0,13.6,0,15,0.5c1.4,0.5,1.9,1.7,1.9,4.3s-0.9,4.1-2.6,4.5c-1.6,0.4-5.3,0.7-8.9,0.7c-5.8,0-9-0.2-10.1-0.7
		c-1.3-0.6-1.5-1.3-1.6-4.8v-0.6h-3.6c0,0.5,0,1.3,0,1.4c0,3.9,0.7,5.6,2.7,6.8c1.7,1.1,4.1,1.4,10.2,1.4c8.6,0,12.5-0.5,14.6-1.6
		c2.1-1.3,3.1-3.5,3.1-7.3C471.6,128.5,471.2,126.8,470.3,125.5z"/>
</g>
<g>
	<path class="st1" d="M84.7,85H65.3v10.6h17.1v9.9H65.3V117h19.4v10.3H52.5V74.7h32.2V85z"/>
	<path class="st1" d="M128.8,74.7h13.5l-18.6,52.5h-16L89,74.7h13.6l13,39.7L128.8,74.7z"/>
</g>
</svg>
