<svg id="Layer_1" data-name="Layer 1" xmlns="http://www.w3.org/2000/svg" viewBox="0 0 161.46 94.44"><defs><style>.cls-1{fill:#4684fe;}.cls-2{fill:#fff;}</style></defs><path class="cls-1" d="M151.5,10.85H18a5.91,5.91,0,0,0-5.89,5.9v66.5A5.91,5.91,0,0,0,18,89.15H151.5a5.91,5.91,0,0,0,5.9-5.9V16.75A5.91,5.91,0,0,0,151.5,10.85Z" transform="translate(-4.01 -2.78)"/><path class="cls-1" d="M154.25,2.78h-139A11.22,11.22,0,0,0,4,14V86A11.22,11.22,0,0,0,15.23,97.22h139A11.22,11.22,0,0,0,165.47,86V14A11.22,11.22,0,0,0,154.25,2.78Zm5.26,41V83.25a8,8,0,0,1-8,8H18a8,8,0,0,1-8-8V16.75a8,8,0,0,1,8-8H151.5a8,8,0,0,1,8,8v27Z" transform="translate(-4.01 -2.78)"/><path class="cls-2" d="M88.08,8.75H18a8,8,0,0,0-8,8v27h2.11v-27A5.91,5.91,0,0,1,18,10.85h127.5V8.75Z" transform="translate(-4.01 -2.78)"/><path class="cls-2" d="M159.51,16.75v27H157.4v-27a5.91,5.91,0,0,0-5.9-5.9H95.62V8.75H151.5A8,8,0,0,1,159.51,16.75Z" transform="translate(-4.01 -2.78)"/><path class="cls-2" d="M157.4,43.61V83.25a5.91,5.91,0,0,1-5.9,5.9H18a5.91,5.91,0,0,1-5.89-5.9V43.61H10V83.25a8,8,0,0,0,8,8H151.5a8,8,0,0,0,8-8V43.61Z" transform="translate(-4.01 -2.78)"/><path class="cls-2" d="M42.51,52.65a13.57,13.57,0,0,0,1.61,4.63,13.76,13.76,0,0,0,7.17,6.18A14.35,14.35,0,0,0,62,63.15,11.74,11.74,0,0,0,66.2,60a3.57,3.57,0,0,1,1.72-.82,3.79,3.79,0,0,1,1.58.11A3.16,3.16,0,0,1,71,60.63a3.47,3.47,0,0,1,.62,2.19,3.18,3.18,0,0,1-1.19,2.28,17.48,17.48,0,0,1-2.58,2.22,16.84,16.84,0,0,1-3.19,1.77,20.18,20.18,0,0,1-3.87,1.19,22.24,22.24,0,0,1-4.63.45A20.69,20.69,0,0,1,48,69.09a21,21,0,0,1-11.2-11.21,21.4,21.4,0,0,1,0-16.48,21.18,21.18,0,0,1,4.51-6.72A21.44,21.44,0,0,1,48,30.17a21,21,0,0,1,16.34,0A20.93,20.93,0,0,1,71,34.64a21.82,21.82,0,0,1,4.51,6.67,20.52,20.52,0,0,1,1.72,8.15,3.07,3.07,0,0,1-.9,2.3,3.19,3.19,0,0,1-2.36.89Zm28-5.58a13.48,13.48,0,0,0-1.61-4.81,14.76,14.76,0,0,0-3.12-3.88,14.3,14.3,0,0,0-9.45-3.5,13.68,13.68,0,0,0-5.13,1,14.21,14.21,0,0,0-4.25,2.59,14.05,14.05,0,0,0-3.06,3.88,13.75,13.75,0,0,0-1.56,4.76Z" transform="translate(-4.01 -2.78)"/><path class="cls-2" d="M102.92,59.39l12.5-28.85a3.45,3.45,0,0,1,1.83-1.81,2.92,2.92,0,0,1,2.53.08,3.31,3.31,0,0,1,1.74,1.86,3.19,3.19,0,0,1-.06,2.57L106,68.2a3,3,0,0,1-.71,1,2.81,2.81,0,0,1-1,.71.09.09,0,0,1-.08,0,1.37,1.37,0,0,1-.49.18l-.31.07-.3,0h-.53a1.3,1.3,0,0,1-.49-.09,2.84,2.84,0,0,1-.52-.22,3.19,3.19,0,0,1-1.68-1.73l-15.5-35a3.56,3.56,0,0,1-.33-1.32,3.18,3.18,0,0,1,.22-1.27A4,4,0,0,1,85,29.54,3.11,3.11,0,0,1,86,28.77a3,3,0,0,1,2.53,0,3.38,3.38,0,0,1,1.83,1.81Z" transform="translate(-4.01 -2.78)"/><circle class="cls-2" cx="130.07" cy="59.11" r="6.92"/></svg>