<?xml version="1.0" encoding="utf-8"?>
<!-- Generator: Adobe Illustrator 25.0.0, SVG Export Plug-In . SVG Version: 6.00 Build 0)  -->
<svg version="1.1" id="Layer_1" xmlns="http://www.w3.org/2000/svg" xmlns:xlink="http://www.w3.org/1999/xlink" x="0px" y="0px"
	 viewBox="0 0 512 512" style="enable-background:new 0 0 512 512;" xml:space="preserve">
<style type="text/css">
	.st0{fill:#4D8CF5;}
</style>
<g>
	<g>
		<path class="st0" d="M221.8,100.3c-69.9,0-126.9,56.8-126.9,126.9s57,126.9,126.9,126.9c70.1,0,126.9-56.8,126.9-126.9
			S291.9,100.3,221.8,100.3z M221.8,319.5c-50.7,0-92.3-41.5-92.3-92.3c0-51,41.5-92.3,92.3-92.3c51,0,92.3,41.2,92.3,92.3
			C313.9,278,272.8,319.5,221.8,319.5z"/>
		<path class="st0" d="M410,370.3l-41.5-41.5c-9.4-9.4-24.8-9.4-34.3,0l0,0c-9.4,9.4-9.4,24.8,0,34.3l41.5,41.5
			c9.4,9.4,24.8,9.4,34.3,0l0,0C419.5,395.1,419.5,379.8,410,370.3z"/>
	</g>
</g>
</svg>
