<?xml version="1.0" encoding="utf-8"?>
<!-- Generator: Adobe Illustrator 25.0.0, SVG Export Plug-In . SVG Version: 6.00 Build 0)  -->
<svg version="1.1" id="Layer_1" xmlns="http://www.w3.org/2000/svg" xmlns:xlink="http://www.w3.org/1999/xlink" x="0px" y="0px"
	 viewBox="0 0 512 512" style="enable-background:new 0 0 512 512;" xml:space="preserve">
<style type="text/css">
	.st0{fill:#E2E2E2;}
	.st1{fill:#4D8CF5;}
</style>
<g>
	<g>
		<g>
			<path class="st0" d="M256,443.5c-50.1,0-97.2-19.5-132.7-54.9C87.9,353.2,68.5,306.1,68.5,256s19.5-97.2,54.9-132.7
				C158.8,88,205.8,68.5,256,68.5s97.2,19.5,132.7,54.9c35.5,35.5,54.9,82.5,54.9,132.7s-19.5,97.2-54.9,132.7
				C353.1,424,306,443.5,256,443.5z M256,82.2c-95.8,0-173.8,78-173.8,173.8s78,173.8,173.8,173.8s173.8-78,173.8-173.8
				S351.8,82.2,256,82.2z"/>
		</g>
	</g>
	<path class="st1" d="M360,355.6c-1.5-3.9-3.1-7.7-5-11.5c-18.9-37.7-56.8-61.1-98.9-61.1c-41.9,0-79.8,23.4-98.9,61
		c-1.8,3.7-3.5,7.5-5.1,11.5c-3.6-3.8-6.9-7.6-10-11.7c2.2-5.2,4.9-10.1,7.7-14.9c14.5-23.8,36.8-42.2,62.7-51.9l8-2.9l-6.9-5.1
		c-18.5-13.5-29.6-35.3-29.6-58.1c0-39.6,32.2-71.9,71.9-71.9s71.9,32.2,71.9,71.9c0,22.8-11.1,44.6-29.6,58.1l-6.9,5.1l8,3
		c26.1,9.8,48.3,28.2,62.7,51.9c2.9,5,5.6,10,7.8,14.9C367,347.9,363.6,351.8,360,355.6z M256,152.7c-32.1,0-58.2,26.2-58.2,58.2
		s26.2,58.2,58.2,58.2s58.2-26.2,58.2-58.2S288,152.7,256,152.7z"/>
</g>
</svg>
